PathFileType	4	(X/Y/Z)	 New Session 102.trc
DataRate	CameraRate	NumFrames	NumMarkers	Units	OrigDataRate	OrigDataStartFrame	OrigNumFrames
100	100	12	14	m	100	265	302
Frame#	Time	C7			T8			IJ			PX			AA			AC			AI			TS			SC			GH			LE			ME			US			RS			
		X1	Y1	Z1	X2	Y2	Z2	X3	Y3	Z3	X4	Y4	Z4	X5	Y5	Z5	X6	Y6	Z6	X7	Y7	Z7	X8	Y8	Z8	X9	Y9	Z9	X10	Y10	Z10	X11	Y11	Z11	X12	Y12	Z12	X13	Y13	Z13	X14	Y14	Z14	
265	2.6500	0.026810	0.104323	0.156289	0.032521	-0.110526	0.228866	0.001908	-0.000148	-0.005782	0.002931	-0.143282	-0.071868	0.225014	0.008645	0.133210	0.171527	0.050048	0.064391	0.110928	0.028007	0.194694	0.114910	-0.090489	0.225456	0.027021	0.008163	-0.001932	0.234354	0.021673	0.092595	0.322070	-0.246955	0.002359	0.248684	-0.298726	0.038438	0.400800	-0.490152	-0.101134	0.327668	-0.498529	-0.136227	
266	2.6600	0.026796	0.104345	0.156289	0.032520	-0.110511	0.228844	0.001917	-0.000151	-0.005796	0.002931	-0.143287	-0.071855	0.225009	0.008663	0.133197	0.171517	0.050064	0.064376	0.110921	0.028020	0.194682	0.114908	-0.090499	0.225431	0.027019	0.008170	-0.001941	0.234355	0.021693	0.092578	0.322045	-0.246944	0.002305	0.248670	-0.298700	0.038383	0.400805	-0.490120	-0.101176	0.327677	-0.498511	-0.136276	
267	2.6700	0.026786	0.104360	0.156295	0.032522	-0.110506	0.228818	0.001926	-0.000154	-0.005810	0.002935	-0.143304	-0.071843	0.225007	0.008660	0.133188	0.171531	0.050066	0.064381	0.110913	0.028018	0.194671	0.114905	-0.090507	0.225407	0.027021	0.008162	-0.001949	0.234364	0.021695	0.092559	0.322024	-0.246941	0.002260	0.248662	-0.298673	0.038331	0.400816	-0.490101	-0.101219	0.327685	-0.498494	-0.136330	
268	2.6800	0.026782	0.104361	0.156298	0.032531	-0.110519	0.228788	0.001934	-0.000157	-0.005826	0.002948	-0.143326	-0.071843	0.225009	0.008639	0.133185	0.171560	0.050059	0.064397	0.110905	0.027999	0.194660	0.114901	-0.090515	0.225382	0.027031	0.008146	-0.001959	0.234375	0.021683	0.092543	0.322008	-0.246945	0.002225	0.248660	-0.298653	0.038285	0.400827	-0.490093	-0.101261	0.327691	-0.498478	-0.136388	
269	2.6900	0.026783	0.104351	0.156292	0.032546	-0.110547	0.228757	0.001941	-0.000160	-0.005844	0.002965	-0.143342	-0.071860	0.225012	0.008618	0.133185	0.171579	0.050048	0.064412	0.110901	0.027974	0.194650	0.114897	-0.090522	0.225357	0.027045	0.008134	-0.001971	0.234381	0.021667	0.092531	0.322000	-0.246949	0.002198	0.248662	-0.298642	0.038240	0.400833	-0.490088	-0.101303	0.327694	-0.498465	-0.136446	
270	2.7000	0.026787	0.104336	0.156276	0.032561	-0.110581	0.228726	0.001947	-0.000162	-0.005863	0.002976	-0.143345	-0.071891	0.225014	0.008610	0.133182	0.171577	0.050040	0.064418	0.110902	0.027957	0.194638	0.114893	-0.090527	0.225331	0.027058	0.008137	-0.001983	0.234379	0.021661	0.092521	0.321997	-0.246950	0.002177	0.248663	-0.298640	0.038192	0.400836	-0.490083	-0.101351	0.327694	-0.498453	-0.136505	
271	2.7100	0.026792	0.104325	0.156256	0.032568	-0.110606	0.228701	0.001952	-0.000165	-0.005885	0.002974	-0.143336	-0.071928	0.225018	0.008619	0.133174	0.171564	0.050042	0.064411	0.110903	0.027953	0.194617	0.114888	-0.090530	0.225304	0.027069	0.008156	-0.001997	0.234372	0.021665	0.092514	0.321999	-0.246942	0.002160	0.248659	-0.298643	0.038136	0.400835	-0.490070	-0.101410	0.327691	-0.498441	-0.136566	
272	2.7200	0.026795	0.104325	0.156235	0.032567	-0.110613	0.228678	0.001956	-0.000168	-0.005908	0.002962	-0.143326	-0.071960	0.225017	0.008633	0.133159	0.171555	0.050054	0.064390	0.110900	0.027958	0.194588	0.114883	-0.090531	0.225276	0.027072	0.008173	-0.002014	0.234367	0.021674	0.092512	0.322002	-0.246929	0.002146	0.248644	-0.298647	0.038075	0.400832	-0.490051	-0.101477	0.327688	-0.498426	-0.136633	
273	2.7300	0.026796	0.104335	0.156216	0.032559	-0.110601	0.228654	0.001958	-0.000171	-0.005934	0.002951	-0.143327	-0.071982	0.225010	0.008641	0.133140	0.171552	0.050069	0.064360	0.110889	0.027967	0.194557	0.114877	-0.090531	0.225246	0.027064	0.008172	-0.002038	0.234368	0.021679	0.092506	0.322005	-0.246916	0.002130	0.248623	-0.298649	0.038013	0.400828	-0.490030	-0.101548	0.327684	-0.498408	-0.136708	
274	2.7400	0.026795	0.104349	0.156200	0.032549	-0.110576	0.228626	0.001959	-0.000175	-0.005962	0.002942	-0.143341	-0.071993	0.224998	0.008638	0.133122	0.171551	0.050075	0.064322	0.110875	0.027974	0.194529	0.114870	-0.090530	0.225215	0.027052	0.008151	-0.002070	0.234370	0.021671	0.092488	0.322003	-0.246908	0.002108	0.248604	-0.298648	0.037957	0.400825	-0.490012	-0.101620	0.327680	-0.498388	-0.136787	
275	2.7500	0.026792	0.104359	0.156182	0.032544	-0.110554	0.228594	0.001959	-0.000180	-0.005992	0.002936	-0.143365	-0.072001	0.224987	0.008626	0.133101	0.171547	0.050066	0.064279	0.110862	0.027977	0.194503	0.114863	-0.090528	0.225182	0.027043	0.008126	-0.002108	0.234362	0.021654	0.092457	0.321993	-0.246906	0.002073	0.248593	-0.298644	0.037908	0.400823	-0.490002	-0.101688	0.327674	-0.498365	-0.136870	
276	2.7600	0.026783	0.104364	0.156158	0.032545	-0.110543	0.228562	0.001958	-0.000186	-0.006024	0.002930	-0.143387	-0.072013	0.224976	0.008614	0.133072	0.171536	0.050046	0.064234	0.110853	0.027976	0.194473	0.114855	-0.090526	0.225148	0.027036	0.008114	-0.002148	0.234343	0.021639	0.092421	0.321981	-0.246907	0.002029	0.248587	-0.298637	0.037867	0.400818	-0.489999	-0.101752	0.327665	-0.498341	-0.136951	
